<?xml version="1.0" encoding="UTF-8" standalone="no"?>
<svg
   viewBox="0 0 640 512"
   version="1.1"
   id="svg44"
   sodipodi:docname="favicon.svg"
   inkscape:version="1.2 (dc2aedaf03, 2022-05-15)"
   xmlns:inkscape="http://www.inkscape.org/namespaces/inkscape"
   xmlns:sodipodi="http://sodipodi.sourceforge.net/DTD/sodipodi-0.dtd"
   xmlns="http://www.w3.org/2000/svg"
   xmlns:svg="http://www.w3.org/2000/svg">
  <defs
     id="defs48" />
  <sodipodi:namedview
     id="namedview46"
     pagecolor="#ffffff"
     bordercolor="#666666"
     borderopacity="1.0"
     inkscape:showpageshadow="2"
     inkscape:pageopacity="0.0"
     inkscape:pagecheckerboard="0"
     inkscape:deskcolor="#d1d1d1"
     showgrid="false"
     inkscape:zoom="1.6171875"
     inkscape:cx="320.30918"
     inkscape:cy="256.30918"
     inkscape:window-width="2560"
     inkscape:window-height="1011"
     inkscape:window-x="0"
     inkscape:window-y="32"
     inkscape:window-maximized="1"
     inkscape:current-layer="svg44" />
  <!--! Font Awesome Pro 6.1.1 by @fontawesome - https://fontawesome.com License - https://fontawesome.com/license (Commercial License) Copyright 2022 Fonticons, Inc. -->
  <path
     d="m 172.5,131.1 c 55.6,-55.59 148,-55.59 203.6,0 50,50 57.4,129.7 16.3,187.2 l -1.1,1.6 C 381,334.2 361,337.6 346.7,327.3 332.3,317 328.9,297 339.2,282.7 l 1.1,-1.6 c 22.9,-32.1 19.3,-76 -8.6,-103.9 -31.4,-31.4 -82.5,-31.4 -114,0 L 105.5,289.5 c -31.51,30.6 -31.51,82.5 0,114 27.8,27.9 71.8,31.5 103.8,8.6 l 1.6,-2 c 14.4,-9.4 34.4,-6.1 44.6,8.3 10.3,14.4 7,34.4 -7.4,44.7 l -1.6,1.1 C 188.1,505.3 110.2,498.7 60.21,448.8 3.741,392.3 3.741,300.7 60.21,244.3 Z M 467.5,380 C 411,436.5 319.5,436.5 263,380 213,330 206.5,251.2 247.6,193.7 l 1.1,-1.6 c 9.4,-14.3 29.4,-17.7 44.6,-7.4 14.4,9.4 17.8,29.4 7.5,44.6 l -1.1,1.6 c -22.9,31.2 -19.3,76 8.6,103.9 31.4,31.4 82.5,31.4 114,0 L 534.5,222.5 C 566,191 566,139.1 534.5,108.5 506.7,80.63 462.7,76.99 430.7,99.9 l -1.6,1.1 c -14.4,10.3 -34.4,6.1 -44.6,-7.42 -10.3,-14.38 -7,-34.37 7.4,-44.64 l 1.6,-1.12 C 451,6.731 529.8,13.25 579.8,63.24 c 56.5,56.46 56.5,148.06 0,204.46 z"
     id="path42"
     style="fill:#ffffff" />
</svg>
